<svg xmlns="http://www.w3.org/2000/svg" viewBox="0 0 750.16 164.78"><defs><style>.a{fill:#54a561;}.b{fill:#4d86a3;}.c,.d,.f{fill:#020608;}.c,.d{fill-opacity:0;}.d{stroke:#54a561;stroke-width:1.16px;}.e{isolation:isolate;}.g{fill:#838382;}</style></defs><title>logo</title><path class="a" d="M209.66,379.67l-76.12-65.45,22.28-27.38,48.27,41.77,94.69-113.72,26,23.21Z" transform="translate(-31.42 -214.89)"/><path class="b" d="M148.85,214.89l75.2,66.38-22.28,27.38L154.42,266,57.88,379.67,31.42,357.39Z" transform="translate(-31.42 -214.89)"/><path class="b" d="M87.12,290.55V263.16H57.41v63.13Z" transform="translate(-31.42 -214.89)"/><path class="c" d="M87.12,290.55V263.16H57.41v63.13Z" transform="translate(-31.42 -214.89)"/><path class="d" d="M781.25,304.4H325.89" transform="translate(-31.42 -214.89)"/><g class="e"><path class="f" d="M325.64,287.69V248.77h11.9v14.51l10.91-14.51h14l-13.73,18.07,16.5,20.85H350.6L337.54,270.9v16.79Z" transform="translate(-31.42 -214.89)"/><path class="f" d="M367.77,253.94a21.54,21.54,0,0,1,29.73,0,20.41,20.41,0,0,1,0,28.63,21.61,21.61,0,0,1-29.73-.05,20.33,20.33,0,0,1,0-28.58Zm14.89,23.63A8,8,0,0,0,388.8,275a9.65,9.65,0,0,0,2.44-6.73,9.38,9.38,0,0,0-2.44-6.67,8.41,8.41,0,0,0-12.29,0,9.42,9.42,0,0,0-2.43,6.67,9.69,9.69,0,0,0,2.43,6.73A8.08,8.08,0,0,0,382.66,277.57Z" transform="translate(-31.42 -214.89)"/><path class="f" d="M408.18,287.69V248.77H420l8.47,13.84L437,248.77H448.7v38.92H437.3v-21.8l-5.48,9.29H425.4l-5.71-9.29v21.8Z" transform="translate(-31.42 -214.89)"/><path class="f" d="M454.57,287.69V248.77h35.15v38.92H477.88V259.05H466.47v28.64Z" transform="translate(-31.42 -214.89)"/><path class="f" d="M492.71,287.69l16-39.15H520l16,39.15H523.22l-2.77-7.28H507.83L505,287.69Zm18.55-16.24H517l-2.82-9.23Z" transform="translate(-31.42 -214.89)"/><path class="f" d="M538.94,287.69V248.77h11.9V262h11.85V248.77h11.9v38.92h-11.9V272.34H550.84v15.35Z" transform="translate(-31.42 -214.89)"/><path class="f" d="M580.68,287.69V248.77h11.9v38.92Z" transform="translate(-31.42 -214.89)"/><path class="f" d="M595.13,287.69l11.57-15.24a12.25,12.25,0,0,1-7.09-11.17,11.39,11.39,0,0,1,4-8.95c2.66-2.39,6.2-3.56,10.57-3.56h18.6v38.92h-11.9v-13.9h-1.55l-10.41,13.9Zm25.74-22.63v-6.28h-5.31c-2.22,0-3.71,1.16-3.71,3.11s1.49,3.17,3.71,3.17Z" transform="translate(-31.42 -214.89)"/><path class="f" d="M652.37,287.69V248.77h35.15v38.92H675.68V259.05H664.27v28.64Z" transform="translate(-31.42 -214.89)"/><path class="f" d="M693.39,287.69V248.77h35.16v38.92H716.7V259.05H705.29v28.64Z" transform="translate(-31.42 -214.89)"/><path class="f" d="M751.52,289.52v-4.39c-5.65-.33-10.07-2.17-13.34-5.5a16.57,16.57,0,0,1-4.87-12,16.37,16.37,0,0,1,4.87-11.9c3.27-3.33,7.69-5.17,13.34-5.5v-3.39h11.9v3.39c5.7.33,10.13,2.17,13.34,5.5a16.56,16.56,0,0,1,4.82,11.9,16.77,16.77,0,0,1-4.82,12c-3.21,3.33-7.64,5.17-13.34,5.5v4.39Zm0-29.13c-3.15.22-6,2.61-6,7.28s2.88,7.06,6,7.34ZM763.42,275c3.16-.28,6-2.72,6-7.34s-2.88-7.06-6-7.28Z" transform="translate(-31.42 -214.89)"/></g><g class="e"><path class="g" d="M326,355.56V322.68h27.61v32.88h-2.37V324.7H328.4v30.86Z" transform="translate(-31.42 -214.89)"/><path class="g" d="M375,356.12a13.17,13.17,0,0,1-9.45-3.43,11.37,11.37,0,0,1,0-16.62,13.16,13.16,0,0,1,9.45-3.48,13,13,0,0,1,9.39,3.48,11.24,11.24,0,0,1,0,16.62A13,13,0,0,1,375,356.12Zm0-2a10.88,10.88,0,0,0,7.59-2.77,9.47,9.47,0,0,0,0-14,10.69,10.69,0,0,0-7.59-2.82,10.88,10.88,0,0,0-7.64,2.82,9.56,9.56,0,0,0,0,14A11.08,11.08,0,0,0,375,354.15Z" transform="translate(-31.42 -214.89)"/><path class="g" d="M395.55,355.56V333.15h2.32v9.44l13-9.44h3.41L400.35,343.3l15.75,12.26h-3.51L397.87,344.1v11.46Z" transform="translate(-31.42 -214.89)"/><path class="g" d="M443.71,336.07a11.53,11.53,0,0,1,0,16.57,12.24,12.24,0,0,1-9,3.48c-4.34,0-7.75-1.5-10.17-4.56V365h-2.33v-31.8h2.33v4c2.42-3,5.78-4.51,10.17-4.51A12.24,12.24,0,0,1,443.71,336.07Zm-19.2,4v8.45a11.1,11.1,0,0,0,9.75,5.59,10.55,10.55,0,0,0,7.54-2.82,9.24,9.24,0,0,0,3-7,9.06,9.06,0,0,0-3-6.95,10.55,10.55,0,0,0-7.54-2.82C430,334.56,426.11,336.86,424.51,340.11Z" transform="translate(-31.42 -214.89)"/><path class="g" d="M455.17,324c1.7-1.69,4.64,1,2.78,2.53C456.25,328.18,453.31,325.5,455.17,324Zm.25,31.61V333.15h2.33v22.41Z" transform="translate(-31.42 -214.89)"/><path class="g" d="M467.55,355.56V333.15H480.1c4.59,0,7.22,2.26,7.22,5.64a4.83,4.83,0,0,1-3.2,5c3.25.84,4.85,2.77,4.85,5.82,0,3.62-2.89,6-7.84,6Zm2.33-12.5h9.6c3.51,0,5.47-1.4,5.47-4s-2-4-5.47-4h-9.6Zm0,10.57h10.78c3.77,0,5.94-1.55,5.94-4.32s-2.17-4.32-5.94-4.32H469.88Z" transform="translate(-31.42 -214.89)"/><path class="g" d="M500.22,333.15h17.35v22.41h-2.32V335.08H502.5l-.16,4.74a54.75,54.75,0,0,1-.41,5.78,25.92,25.92,0,0,1-1.14,4.84c-1.08,3.38-3.41,5.16-6.86,5.16a6.42,6.42,0,0,1-.93,0v-2a6.07,6.07,0,0,0,1,.05c2.32,0,4-1.55,4.75-4.37a35.35,35.35,0,0,0,1.24-8.92Z" transform="translate(-31.42 -214.89)"/><path class="g" d="M525,355.56l7.79-9.16c-4.38-.38-6.86-2.87-6.86-6.62,0-3.95,3-6.63,8.46-6.63h12.44v22.41h-2.32v-8.88h-9.24l-7.48,8.88Zm19.51-10.81v-9.67H534.7c-4.08,0-6.4,1.78-6.4,4.84s2.32,4.83,6.4,4.83Z" transform="translate(-31.42 -214.89)"/><path class="g" d="M591,327.14a13.49,13.49,0,0,0-8.46-3.05c-4.7,0-7.69,2.21-7.69,5.78,0,2.25,1.39,4.6,4.23,7.09l13.58,11.83a18,18,0,0,0,3.56-10.66h2.32a19.79,19.79,0,0,1-4.29,12.12l6.15,5.31h-3.25l-4.34-3.76a16.49,16.49,0,0,1-11.72,4.32,15.6,15.6,0,0,1-9.13-2.77,8.94,8.94,0,0,1-3.88-7.66,8.74,8.74,0,0,1,2.27-6.1,11.88,11.88,0,0,1,5-3.38,9.18,9.18,0,0,1-2.84-6.39,6.7,6.7,0,0,1,2.79-5.59,11.15,11.15,0,0,1,6.92-2.11,14.74,14.74,0,0,1,8.82,2.63Zm.21,23.25-14.4-12.63a9.29,9.29,0,0,0-4.44,2.81,7.27,7.27,0,0,0-1.91,5.12,7.44,7.44,0,0,0,3,6.16,12.09,12.09,0,0,0,7.59,2.3A14.29,14.29,0,0,0,591.17,350.39Z" transform="translate(-31.42 -214.89)"/><path class="g" d="M637.57,356.4v-3.24c-12.8-.09-18.27-6.71-18.22-14a13,13,0,0,1,4.59-10c3-2.77,7.59-4.13,13.63-4.18v-3h2.37v3c12.75,0,18.17,6.91,18.17,14.09s-5.42,13.95-18.17,14.09v3.24Zm0-29.4c-5.63,0-10,1.55-12.34,4a11.22,11.22,0,0,0,0,16.21c2.32,2.39,6.71,3.94,12.34,3.94Zm2.37,24.14c5.63,0,10-1.55,12.34-3.94a11.34,11.34,0,0,0,0-16.21c-2.32-2.44-6.71-4-12.34-4Z" transform="translate(-31.42 -214.89)"/><path class="g" d="M667.3,354.2a6.26,6.26,0,0,1-2.79-5.41,6.17,6.17,0,0,1,2.89-5.3,12.45,12.45,0,0,1,7.33-2,19.55,19.55,0,0,1,9.65,2.44v-3c0-4.32-3.2-6.39-8.77-6.39a15.84,15.84,0,0,0-8.36,2.4V334.8a17,17,0,0,1,8.77-2.21c6.4,0,10.69,2.72,10.69,8.17v10c0,1.92,1,3.19,2.68,3.19a3.33,3.33,0,0,0,1.44-.28v1.74a4.56,4.56,0,0,1-2,.38,4,4,0,0,1-4.23-3.9A13.8,13.8,0,0,1,674,356.12,11.88,11.88,0,0,1,667.3,354.2Zm17.08-4.51V346a17.5,17.5,0,0,0-9-2.63c-5.21,0-8.41,2.16-8.41,5.4,0,3.61,3.4,5.4,7.74,5.4A12.78,12.78,0,0,0,684.38,349.69Z" transform="translate(-31.42 -214.89)"/><path class="g" d="M698.88,352.69a11.32,11.32,0,0,1,0-16.67,13.09,13.09,0,0,1,9.35-3.43,15.57,15.57,0,0,1,7.43,1.74v2.06a15.2,15.2,0,0,0-7.17-1.83,11.3,11.3,0,0,0-7.8,2.82,9.45,9.45,0,0,0,0,14,11.5,11.5,0,0,0,7.8,2.77,13.93,13.93,0,0,0,7.63-2.11v2.11a15,15,0,0,1-7.94,2A13,13,0,0,1,698.88,352.69Z" transform="translate(-31.42 -214.89)"/><path class="g" d="M724.74,354.2a6.25,6.25,0,0,1-2.78-5.41,6.17,6.17,0,0,1,2.89-5.3,12.42,12.42,0,0,1,7.33-2,19.58,19.58,0,0,1,9.65,2.44v-3c0-4.32-3.2-6.39-8.78-6.39a15.84,15.84,0,0,0-8.36,2.4V334.8a17,17,0,0,1,8.78-2.21c6.4,0,10.68,2.72,10.68,8.17v10c0,1.92,1,3.19,2.69,3.19a3.36,3.36,0,0,0,1.44-.28v1.74a4.56,4.56,0,0,1-2,.38,4,4,0,0,1-4.23-3.9,13.82,13.82,0,0,1-10.59,4.27A11.88,11.88,0,0,1,724.74,354.2Zm17.09-4.51V346a17.53,17.53,0,0,0-9-2.63c-5.22,0-8.42,2.16-8.42,5.4,0,3.61,3.41,5.4,7.74,5.4A12.8,12.8,0,0,0,741.83,349.69Z" transform="translate(-31.42 -214.89)"/><path class="g" d="M750.91,362.55v-8.92H754c3.14-3.52,4.69-9.44,4.69-17.75l.06-2.73h17.34v20.48h4.75v8.92h-2.27v-7H753.18v7Zm22.82-8.92V335.08H760.92v1.6c0,7.46-1.44,13.1-4.28,16.95Z" transform="translate(-31.42 -214.89)"/></g></svg>