<?xml version="1.0" standalone="no"?>
<!DOCTYPE svg PUBLIC "-//W3C//DTD SVG 20010904//EN"
 "http://www.w3.org/TR/2001/REC-SVG-20010904/DTD/svg10.dtd">
<svg version="1.0" xmlns="http://www.w3.org/2000/svg"
 width="1084.000000pt" height="1084.000000pt" viewBox="0 0 1084.000000 1084.000000"
 preserveAspectRatio="xMidYMid meet">
<metadata>
Created by potrace 1.11, written by Peter Selinger 2001-2013
</metadata>
<g transform="translate(0.000000,1084.000000) scale(0.100000,-0.100000)"
fill="#000000" stroke="none">
<path d="M4124 8438 c-115 -139 -216 -261 -224 -272 -8 -10 -31 -38 -50 -61
-31 -37 -84 -101 -132 -159 -9 -12 -30 -37 -46 -56 -16 -19 -85 -103 -153
-186 -146 -178 -576 -700 -601 -729 -33 -40 -466 -565 -613 -745 -82 -101
-157 -190 -165 -199 -9 -9 -29 -34 -44 -54 -16 -21 -31 -35 -34 -32 -3 3 -5
221 -5 485 l0 480 -56 1 c-220 2 -1033 -1 -1039 -5 -4 -2 -7 -523 -6 -1158 l1
-1153 -165 -200 c-90 -110 -174 -211 -186 -225 -12 -14 -69 -83 -128 -155 -58
-71 -173 -211 -254 -310 -82 -99 -166 -201 -187 -227 l-38 -47 28 -25 c15 -13
134 -113 263 -221 129 -108 260 -218 289 -243 30 -26 73 -63 96 -82 23 -19 63
-53 90 -75 26 -22 62 -53 79 -68 47 -42 136 -110 139 -106 11 14 104 126 113
134 5 6 44 51 85 100 40 50 76 92 79 95 5 5 99 115 135 159 11 13 25 29 30 35
6 6 35 40 65 76 30 35 82 96 115 135 33 39 81 95 106 125 43 51 162 192 212
250 44 52 133 156 152 179 20 24 57 68 146 172 26 30 73 86 105 124 32 39 61
72 64 75 3 3 55 64 115 135 60 72 112 132 115 135 3 3 41 48 85 100 44 52 84
100 90 106 5 6 28 33 51 60 60 71 229 272 274 324 22 25 52 61 68 80 57 67
284 335 306 360 12 14 136 160 275 325 140 165 284 334 319 375 35 41 74 86
86 100 11 14 46 54 76 90 30 35 63 74 72 85 9 11 25 30 35 41 10 12 56 67 102
122 l84 99 22 -21 c22 -21 171 -156 209 -189 12 -10 37 -33 56 -50 138 -125
278 -251 350 -316 90 -81 152 -137 295 -267 50 -45 187 -168 305 -274 118
-106 222 -200 231 -209 8 -9 49 -45 89 -81 41 -36 84 -74 96 -85 106 -96 96
-90 111 -69 7 10 45 57 83 104 131 161 451 555 523 644 40 48 82 100 95 115
12 14 41 50 64 80 l42 53 -44 41 c-94 85 -129 116 -250 222 -69 59 -127 111
-130 114 -3 3 -39 35 -80 71 -41 36 -80 70 -86 75 -60 54 -180 160 -334 295
-102 90 -203 179 -225 199 -44 39 -170 150 -224 197 -19 16 -44 38 -55 49 -12
11 -96 85 -186 165 -91 79 -181 159 -200 176 -19 17 -62 55 -95 84 -33 29 -81
71 -106 94 -44 39 -140 124 -185 163 -12 10 -143 126 -293 258 -149 132 -275
241 -280 243 -5 1 -102 -111 -217 -250z"/>
<path d="M9570 8333 c-162 -196 -335 -404 -385 -463 -49 -59 -137 -165 -195
-235 -58 -70 -110 -133 -115 -139 -6 -6 -48 -56 -93 -111 -46 -55 -100 -120
-121 -145 -21 -25 -66 -79 -100 -120 -34 -41 -79 -95 -100 -120 -21 -25 -87
-103 -146 -175 -59 -71 -124 -150 -145 -175 -21 -25 -223 -268 -450 -540 -226
-272 -440 -529 -475 -570 -35 -41 -155 -185 -267 -320 -112 -135 -209 -252
-216 -260 -30 -35 -67 -80 -120 -145 -31 -38 -59 -72 -62 -75 -11 -10 -169
-201 -184 -222 l-15 -21 -48 39 c-26 21 -50 41 -53 44 -3 3 -36 32 -75 65 -38
33 -72 62 -75 65 -3 3 -34 30 -70 60 -36 30 -67 57 -70 60 -3 3 -39 34 -80 69
-76 66 -95 82 -140 123 -14 13 -54 48 -90 78 -36 30 -67 57 -70 60 -3 3 -70
61 -150 130 -80 68 -147 127 -150 130 -3 3 -34 30 -70 60 -36 30 -67 57 -70
60 -3 3 -52 46 -110 95 -116 100 -166 143 -190 165 -9 8 -45 40 -80 70 -36 31
-95 81 -131 113 l-66 57 -225 -278 c-124 -152 -299 -367 -388 -477 -89 -110
-173 -212 -186 -227 -13 -15 -24 -29 -24 -31 0 -2 68 -62 152 -133 83 -71 156
-134 162 -139 13 -12 210 -181 245 -210 13 -11 31 -27 40 -36 9 -8 129 -112
266 -229 138 -118 261 -224 275 -236 14 -12 61 -52 105 -90 44 -38 82 -71 85
-74 3 -3 50 -43 105 -90 100 -85 148 -126 169 -145 12 -10 131 -113 176 -151
48 -42 205 -177 235 -203 17 -14 80 -68 140 -120 161 -137 223 -191 275 -236
25 -22 70 -60 100 -85 29 -25 61 -52 69 -60 9 -9 60 -54 114 -99 83 -71 100
-82 112 -70 7 8 95 115 195 239 100 124 189 234 198 245 10 11 76 92 147 180
71 88 132 162 135 165 5 5 173 213 229 284 14 17 39 47 55 67 17 20 38 44 46
55 8 10 85 105 169 209 214 262 363 446 381 469 8 10 27 33 41 50 14 17 119
146 233 286 114 140 212 262 219 270 7 8 100 123 207 255 107 132 199 245 205
251 5 6 22 26 37 45 27 35 476 588 506 624 18 22 177 217 202 248 8 11 20 24
25 31 6 6 85 103 177 216 185 229 490 604 516 635 9 11 44 54 77 95 33 41 62
77 65 80 18 17 170 211 170 216 0 4 -8 14 -19 23 -10 9 -54 48 -97 87 -43 39
-124 111 -179 159 -55 48 -125 111 -155 139 -30 28 -84 76 -119 106 -35 30
-78 68 -96 85 -38 36 -83 76 -190 170 -44 39 -81 73 -83 78 -2 4 -9 7 -15 7
-7 -1 -145 -161 -307 -357z"/>
</g>
</svg>
